<?xml version="1.0" encoding="UTF-8"?>
<svg version="1.1" xmlns="http://www.w3.org/2000/svg" width="740" height="282">
<path d="M0 0 C-0.58650431 6.42576702 -1.68820817 12.4487566 -3.3125 18.6875 C-3.53687744 19.56760742 -3.76125488 20.44771484 -3.99243164 21.35449219 C-5.5189309 27.29129995 -7.1856413 33.17912833 -8.90625 39.0625 C-10.67485992 45.28587926 -12.16105101 51.58676265 -13.703125 57.86914062 C-15.494889 65.12304232 -17.43182954 72.3211674 -19.61499023 79.46777344 C-21.18116048 84.31480476 -21.18116048 84.31480476 -20 89 C-18.20811885 90.87914809 -16.40911675 92.62475808 -14.5 94.375 C-2.07325715 106.29331706 5.44045551 121.21241856 9 138 C9.185625 138.79792969 9.37125 139.59585938 9.5625 140.41796875 C11.79456914 153.59116252 9.48309665 167.89536714 4 180 C3.61328125 180.88816406 3.2265625 181.77632812 2.828125 182.69140625 C-2.10524213 193.32031801 -9.6597414 204.70292297 -19 212 C-19.66 212 -20.32 212 -21 212 C-21 212.66 -21 213.32 -21 214 C-50.56621922 239.73938588 -89.15133898 245.53673862 -127 243 C-133.56288903 242.35246427 -139.71845312 240.96522681 -146 239 C-147.11181641 238.67854004 -147.11181641 238.67854004 -148.24609375 238.35058594 C-159.43670354 235.10946076 -169.8653984 230.74421983 -180 225 C-181.72089844 224.0409375 -181.72089844 224.0409375 -183.4765625 223.0625 C-185.00410156 222.1034375 -185.00410156 222.1034375 -186.5625 221.125 C-187.89474609 220.29355469 -187.89474609 220.29355469 -189.25390625 219.4453125 C-191.6863384 216.03881915 -191.16665666 213.81386823 -190.55786133 209.77539062 C-189.60091434 205.01452702 -188.38473512 200.35897638 -187.0625 195.6875 C-186.42942675 193.39199898 -185.79663119 191.09642136 -185.1640625 188.80078125 C-184.81891602 187.55893066 -184.47376953 186.31708008 -184.11816406 185.03759766 C-182.24577892 178.29138773 -180.41701663 171.53323204 -178.58737183 164.77532959 C-178.15444682 163.17630244 -177.72111814 161.57738453 -177.28738403 159.97857666 C-174.33099942 149.07546927 -171.46397243 138.15831655 -168.80053711 127.17919922 C-168.58792236 126.30666504 -168.37530762 125.43413086 -168.15625 124.53515625 C-167.96289062 123.74125488 -167.76953125 122.94735352 -167.5703125 122.12939453 C-167 120 -167 120 -165.78125 116.68359375 C-164.87108615 113.55718094 -164.87982739 112.04963291 -166 109 C-167.85490764 106.63112909 -167.85490764 106.63112909 -170.1875 104.375 C-182.67396206 91.01646757 -186.41781546 75.59557988 -186.15234375 57.8359375 C-185.971469 53.28160397 -185.38401841 49.32704607 -184 45 C-183.75507813 44.154375 -183.51015625 43.30875 -183.2578125 42.4375 C-177.20007586 23.56738232 -160.64533219 6.1546127 -143.17041016 -2.95361328 C-128.9325151 -10.11545637 -114.76904872 -15.32727988 -99 -18 C-97.9275 -18.20625 -96.855 -18.4125 -95.75 -18.625 C-64.13303412 -24.09716717 -26.61859888 -18.63301921 0 0 Z " fill="#0B046C" transform="translate(201,39)"/>
<path d="M0 0 C0.87884354 -0.00960754 1.75768707 -0.01921509 2.66316223 -0.02911377 C3.6182518 -0.03336365 4.57334137 -0.03761353 5.55737305 -0.04199219 C6.54472946 -0.04769226 7.53208588 -0.05339233 8.54936218 -0.05926514 C10.64845709 -0.06872997 12.74756696 -0.07525498 14.84667969 -0.07910156 C18.01809877 -0.08871265 21.18884319 -0.11968177 24.36010742 -0.15136719 C40.17750828 -0.23525592 54.5334138 0.0898622 66.9753418 11.12988281 C78.60275895 23.10438705 80.83466675 40.11503353 80.7565918 56.16113281 C80.13665187 72.77617206 77.57535155 88.03837909 65.0065918 99.97363281 C46.4420431 115.19163099 14.61459186 108.99545282 -6.2434082 108.16113281 C-6.2434082 72.85113281 -6.2434082 37.54113281 -6.2434082 1.16113281 C-3.93074167 0.00479954 -2.57441977 0.02272449 0 0 Z M18.7565918 20.16113281 C18.7565918 42.60113281 18.7565918 65.04113281 18.7565918 88.16113281 C35.30341098 89.93547145 35.30341098 89.93547145 46.4519043 83.54003906 C55.28332568 72.31979058 54.73538138 57.78123868 53.7565918 44.16113281 C52.57579156 35.89553115 50.50826306 28.1312059 43.7565918 22.78613281 C35.42422495 18.27276744 29.45090828 20.16113281 18.7565918 20.16113281 Z " fill="#0B046C" transform="translate(472.243408203125,96.8388671875)"/>
<path d="M0 0 C0.82193344 -0.00960754 1.64386688 -0.01921509 2.4907074 -0.02911377 C3.3781514 -0.03336365 4.2655954 -0.03761353 5.17993164 -0.04199219 C6.56251915 -0.0505423 6.56251915 -0.0505423 7.97303772 -0.05926514 C9.92911635 -0.06871743 11.88521092 -0.07525003 13.84130859 -0.07910156 C16.79757674 -0.08872875 19.75312588 -0.11971674 22.70922852 -0.15136719 C37.23974344 -0.23360044 51.7113024 0.15187589 62.71508789 10.91113281 C68.89107014 20.08687787 70.87775687 29.15957851 69.90258789 40.16113281 C67.88667035 48.19024438 63.48474185 55.96833557 56.52758789 60.66113281 C55.66133789 61.15613281 54.79508789 61.65113281 53.90258789 62.16113281 C54.76883789 63.02738281 55.63508789 63.89363281 56.52758789 64.78613281 C63.29790624 72.68749258 66.22699031 83.74329856 69.62915039 93.41894531 C70.75352572 96.27534851 70.75352572 96.27534851 73.11352539 98.27832031 C74.90258789 100.16113281 74.90258789 100.16113281 74.89477539 102.27441406 C73.62333137 104.69215998 72.50095684 105.23878777 70.02758789 106.34863281 C69.32891602 106.6721875 68.63024414 106.99574219 67.91040039 107.32910156 C61.80711478 109.85828412 55.78346277 110.30261154 49.59008789 107.84863281 C43.13978064 101.39832556 40.87640666 91.58468793 38.04516602 83.08813477 C35.40194185 75.13471955 35.40194185 75.13471955 28.90258789 70.16113281 C25.60258789 69.83113281 22.30258789 69.50113281 18.90258789 69.16113281 C18.90258789 82.03113281 18.90258789 94.90113281 18.90258789 108.16113281 C14.31483637 108.81652589 10.44001894 109.29820045 5.90258789 109.28613281 C4.44852539 109.29 4.44852539 109.29 2.96508789 109.29394531 C-0.40709716 109.14770259 -3.75598149 108.63848004 -7.09741211 108.16113281 C-7.09741211 72.85113281 -7.09741211 37.54113281 -7.09741211 1.16113281 C-4.39244576 0.25947736 -2.78171369 0.0263421 0 0 Z M18.90258789 20.16113281 C18.90258789 29.73113281 18.90258789 39.30113281 18.90258789 49.16113281 C30.28473418 49.74791813 30.28473418 49.74791813 39.90258789 46.16113281 C42.75006877 42.55919119 43.78474914 39.12067691 44.34008789 34.59863281 C43.74204134 29.89969565 42.38272901 26.01130921 39.40258789 22.28613281 C35.61215939 19.44331143 31.20283941 20.04806786 26.71508789 20.09863281 C24.13696289 20.11925781 21.55883789 20.13988281 18.90258789 20.16113281 Z " fill="#0B046C" transform="translate(665.097412109375,96.8388671875)"/>
<path d="M0 0 C0.96059326 0.00612305 1.92118652 0.01224609 2.91088867 0.01855469 C14.58165844 0.27216105 24.90162337 3.29268341 35.375 8.4375 C35.04486073 15.37042475 33.73591475 20.87762756 29.375 26.4375 C27.58984375 27.83203125 27.58984375 27.83203125 25.375 28.4375 C22.4921875 27.609375 22.4921875 27.609375 19.25 26.1875 C10.694254 22.66736683 1.9088146 19.95254214 -7.375 22.0625 C-10.57019506 24.0151192 -11.45280303 25.9209091 -12.625 29.4375 C-12.26791436 32.01873589 -12.26791436 32.01873589 -10.625 34.4375 C-8.1708753 35.97391824 -5.92494513 37.18711224 -3.3125 38.375 C-2.59771484 38.71635986 -1.88292969 39.05771973 -1.14648438 39.40942383 C1.01899109 40.43802468 3.19401505 41.44225912 5.375 42.4375 C6.00067871 42.72302734 6.62635742 43.00855469 7.27099609 43.30273438 C8.97218139 44.07715105 10.67358596 44.85108599 12.375 45.625 C22.62598913 50.31914106 31.51667926 55.80552273 36.375 66.4375 C39.15235443 75.81762156 38.62024284 84.62328537 34.8125 93.625 C29.75039636 102.67374203 20.97950068 107.41746132 11.375 110.4375 C-7.62966574 114.60472419 -26.20374871 110.22037311 -42.625 100.4375 C-42.39019234 93.04105871 -40.64694645 88.00045239 -35.625 82.4375 C-33.7734375 81.015625 -33.7734375 81.015625 -31.625 80.4375 C-28.99609375 81.44921875 -28.99609375 81.44921875 -26.0625 83.125 C-16.38574905 88.24454015 -6.67252134 91.03308424 4.375 89.4375 C7.84284527 87.64049181 7.84284527 87.64049181 9.375 84.4375 C10.20833333 80.9375 10.20833333 80.9375 9.375 77.4375 C4.53187843 70.92955539 -3.74419268 68.35193008 -10.98388672 65.2421875 C-22.63757299 60.19321303 -32.73545144 55.34280174 -38.625 43.4375 C-41.08157349 34.10854914 -40.31734351 24.86905474 -35.625 16.4375 C-27.91521919 4.31868829 -13.65613862 -0.14912912 0 0 Z " fill="#0B046C" transform="translate(282.625,95.5625)"/>
<path d="M0 0 C1.80868813 0.00333092 1.80868813 0.00333092 3.65391541 0.00672913 C4.64899864 0.00651009 4.64899864 0.00651009 5.66418457 0.00628662 C7.86644207 0.00698571 10.06861596 0.01477787 12.27085876 0.02259827 C13.79400588 0.02446246 15.31715359 0.02588636 16.84030151 0.02688599 C20.85657903 0.03071105 24.87282059 0.04054124 28.88908386 0.05158997 C32.98443617 0.06180433 37.07979427 0.06638366 41.17515564 0.07142639 C49.21618779 0.08216352 57.25719069 0.0992398 65.29820251 0.12025452 C66.09421551 3.13557557 66.46108226 5.80598163 66.48570251 8.93275452 C66.4998822 9.74357483 66.51406189 10.55439514 66.52867126 11.38978577 C66.29820251 14.12025452 66.29820251 14.12025452 64.29820251 21.12025452 C50.10820251 21.12025452 35.91820251 21.12025452 21.29820251 21.12025452 C21.29820251 28.38025452 21.29820251 35.64025452 21.29820251 43.12025452 C32.84820251 43.12025452 44.39820251 43.12025452 56.29820251 43.12025452 C57.40798152 46.44959154 57.43121789 48.9925376 57.42320251 52.49525452 C57.4270697 54.17748108 57.4270697 54.17748108 57.43101501 55.89369202 C57.29820251 59.12025452 57.29820251 59.12025452 56.29820251 64.12025452 C44.74820251 64.12025452 33.19820251 64.12025452 21.29820251 64.12025452 C21.29820251 71.38025452 21.29820251 78.64025452 21.29820251 86.12025452 C37.13820251 86.12025452 52.97820251 86.12025452 69.29820251 86.12025452 C68.13523955 100.07581007 68.13523955 100.07581007 64.29820251 104.12025452 C58.62697004 107.96636236 52.92964286 107.57131146 46.32945251 107.55384827 C45.17578186 107.55909012 44.02211121 107.56433197 42.83348083 107.56973267 C40.39936629 107.57614332 37.96522072 107.57482831 35.53111267 107.56629944 C31.81098746 107.55778378 28.09239515 107.58657611 24.37242126 107.61830139 C22.00393214 107.61991341 19.6354403 107.61933586 17.26695251 107.61634827 C16.15743225 107.62758224 15.04791199 107.63881622 13.9047699 107.65039062 C7.93879077 107.59664281 3.81372243 107.45907624 -0.70179749 103.12025452 C-4.01993757 97.92147478 -4.12105665 93.60381454 -4.0582428 87.64247131 C-4.06028717 86.70685867 -4.06233154 85.77124603 -4.06443787 84.80728149 C-4.06743595 81.72781058 -4.049003 78.64888014 -4.02992249 75.56947327 C-4.02686405 73.42810193 -4.02498857 71.28672861 -4.02424622 69.14535522 C-4.01964984 64.66580043 -4.00524502 60.18642608 -3.98304749 55.70692444 C-3.95468022 49.9519402 -3.94382676 44.1970975 -3.93936539 38.44204998 C-3.93521968 34.0250099 -3.92541073 29.60799868 -3.9134903 25.19097328 C-3.90777702 23.06778508 -3.90302183 20.94459409 -3.89922333 18.8214016 C-3.89238673 15.86457243 -3.87876908 12.90785795 -3.8629303 9.95106506 C-3.86181244 9.06641571 -3.86069458 8.18176636 -3.85954285 7.27030945 C-3.80888904 0.16953014 -3.80888904 0.16953014 0 0 Z " fill="#0C046C" transform="translate(572.7017974853516,97.87974548339844)"/>
<path d="M0 0 C1.31355469 -0.02578125 2.62710937 -0.0515625 3.98046875 -0.078125 C8.02675051 0.26834561 10.39002707 1.11095442 13.8125 3.25 C17.41331549 8.21664206 17.95712041 12.50313827 17.92602539 18.4753418 C17.92617142 19.20729767 17.92631744 19.93925354 17.9264679 20.69338989 C17.9257714 23.11202969 17.91799128 25.53059241 17.91015625 27.94921875 C17.90829114 29.62644916 17.90686767 31.30368011 17.90586853 32.98091125 C17.9020507 37.39500432 17.89222666 41.80906447 17.88116455 46.22314453 C17.869136 51.5195167 17.86454469 56.81589988 17.85871124 62.1122818 C17.84901453 70.15821076 17.82985284 78.2040675 17.8125 86.25 C31.3425 86.25 44.8725 86.25 58.8125 86.25 C58.8125 100.5 58.8125 100.5 55.8125 104.25 C49.83759922 108.45457276 44.07830861 108.84078666 36.9609375 108.78125 C35.94327301 108.7850769 34.92560852 108.78890381 33.87710571 108.79284668 C31.73739628 108.79555567 29.59765315 108.78826591 27.45800781 108.77148438 C24.19000392 108.75001645 20.9241872 108.77134424 17.65625 108.796875 C15.57030767 108.79423241 13.4843667 108.78910887 11.3984375 108.78125 C10.42643402 108.78934692 9.45443054 108.79744385 8.45297241 108.80578613 C2.82125087 108.72815596 -0.96943381 108.36940274 -5.1875 104.25 C-7.97339685 98.19756827 -8.61490386 93.24390149 -8.54394531 86.63696289 C-8.54598969 85.71081177 -8.54803406 84.78466064 -8.55014038 83.83044434 C-8.55312884 80.79430876 -8.53473682 77.75872651 -8.515625 74.72265625 C-8.51256526 72.60656366 -8.51069077 70.49046906 -8.50994873 68.37437439 C-8.50535865 63.95384946 -8.49097641 59.53350802 -8.46875 55.11303711 C-8.44034731 49.43433822 -8.42952499 43.75578288 -8.4250679 38.07701969 C-8.42092298 33.71488499 -8.41111527 29.35277954 -8.39919281 24.99065971 C-8.3934811 22.89538241 -8.38872539 20.80010228 -8.38492584 18.70482063 C-8.37809019 15.78892116 -8.36447395 12.87313805 -8.34863281 9.95727539 C-8.34751495 9.08511887 -8.34639709 8.21296234 -8.34524536 7.31437683 C-8.29015636 -0.29907892 -7.07790996 0.05367136 0 0 Z " fill="#0B046C" transform="translate(343.1875,96.75)"/>
<path d="M0 0 C1.24426758 -0.00193359 1.24426758 -0.00193359 2.51367188 -0.00390625 C3.37669922 -0.00003906 4.23972656 0.00382812 5.12890625 0.0078125 C5.98806641 0.00394531 6.84722656 0.00007813 7.73242188 -0.00390625 C8.97862305 -0.00197266 8.97862305 -0.00197266 10.25 0 C11.00595459 0.00112793 11.76190918 0.00225586 12.54077148 0.00341797 C14.69140625 0.1328125 14.69140625 0.1328125 18.69140625 1.1328125 C18.69140625 36.4428125 18.69140625 71.7528125 18.69140625 108.1328125 C13.92476927 108.81376064 9.86003716 109.2691991 5.12890625 109.2578125 C3.51822266 109.26167969 3.51822266 109.26167969 1.875 109.265625 C-1.30859375 109.1328125 -1.30859375 109.1328125 -7.30859375 108.1328125 C-7.30859375 72.8228125 -7.30859375 37.5128125 -7.30859375 1.1328125 C-4.53762878 0.20915751 -2.85998702 0.00427365 0 0 Z " fill="#0B046C" transform="translate(424.30859375,96.8671875)"/>
</svg>
